<svg xmlns="http://www.w3.org/2000/svg"  viewBox="0 0 64 64" width="64px" height="64px"><linearGradient id="TNFAmeZTDGFspTAUz~p57a" x1="32" x2="32" y1="6" y2="58" gradientUnits="userSpaceOnUse" spreadMethod="reflect"><stop offset="0" stop-color="#1a6dff"/><stop offset="1" stop-color="#c822ff"/></linearGradient><path fill="none" stroke="url(#TNFAmeZTDGFspTAUz~p57a)" stroke-miterlimit="10" stroke-width="2" d="M32 7A25 25 0 1 0 32 57A25 25 0 1 0 32 7Z"/><linearGradient id="TNFAmeZTDGFspTAUz~p57b" x1="20" x2="20" y1="19" y2="34" gradientUnits="userSpaceOnUse" spreadMethod="reflect"><stop offset="0" stop-color="#6dc7ff"/><stop offset="1" stop-color="#e6abff"/></linearGradient><path fill="url(#TNFAmeZTDGFspTAUz~p57b)" d="M23,34h-8v-2h8V21h-6v6h4v2h-4c-1.103,0-2-0.897-2-2v-6c0-1.103,0.897-2,2-2h6 c1.103,0,2,0.897,2,2v11C25,33.103,24.103,34,23,34z"/><linearGradient id="TNFAmeZTDGFspTAUz~p57c" x1="44" x2="44" y1="19" y2="34" gradientUnits="userSpaceOnUse" spreadMethod="reflect"><stop offset="0" stop-color="#6dc7ff"/><stop offset="1" stop-color="#e6abff"/></linearGradient><path fill="url(#TNFAmeZTDGFspTAUz~p57c)" d="M47,34h-8v-2h8V21h-6v6h4v2h-4c-1.103,0-2-0.897-2-2v-6c0-1.103,0.897-2,2-2h6 c1.103,0,2,0.897,2,2v11C49,33.103,48.103,34,47,34z"/><linearGradient id="TNFAmeZTDGFspTAUz~p57d" x1="32" x2="32" y1="19" y2="29" gradientUnits="userSpaceOnUse" spreadMethod="reflect"><stop offset="0" stop-color="#6dc7ff"/><stop offset="1" stop-color="#e6abff"/></linearGradient><path fill="url(#TNFAmeZTDGFspTAUz~p57d)" d="M35,29h-6c-1.103,0-2-0.897-2-2v-6c0-1.103,0.897-2,2-2h6c1.103,0,2,0.897,2,2v6 C37,28.103,36.103,29,35,29z M29,21v6h6v-6H29z"/><linearGradient id="TNFAmeZTDGFspTAUz~p57e" x1="30" x2="30" y1="36" y2="46" gradientUnits="userSpaceOnUse" spreadMethod="reflect"><stop offset="0" stop-color="#6dc7ff"/><stop offset="1" stop-color="#e6abff"/></linearGradient><path fill="url(#TNFAmeZTDGFspTAUz~p57e)" d="M33,46h-6c-1.103,0-2-0.897-2-2v-6c0-1.103,0.897-2,2-2h6c1.103,0,2,0.897,2,2v6 C35,45.103,34.103,46,33,46z M27,38v6h6v-6H27z"/><linearGradient id="TNFAmeZTDGFspTAUz~p57f" x1="19" x2="19" y1="36" y2="46" gradientUnits="userSpaceOnUse" spreadMethod="reflect"><stop offset="0" stop-color="#6dc7ff"/><stop offset="1" stop-color="#e6abff"/></linearGradient><path fill="url(#TNFAmeZTDGFspTAUz~p57f)" d="M23,38v-2h-6c-1.1,0-2,0.9-2,2v6c0,1.1,0.9,2,2,2h6v-2h-6v-6H23z"/><linearGradient id="TNFAmeZTDGFspTAUz~p57g" x1="43" x2="43" y1="36" y2="46" gradientUnits="userSpaceOnUse" spreadMethod="reflect"><stop offset="0" stop-color="#6dc7ff"/><stop offset="1" stop-color="#e6abff"/></linearGradient><path fill="url(#TNFAmeZTDGFspTAUz~p57g)" d="M49,36v10h-2v-8h-3v8h-2v-8h-3v8h-2v-8c0-1.1,0.9-2,2-2H49z"/></svg>